<svg version="1.1" xmlns="http://www.w3.org/2000/svg" xmlns:xlink="http://www.w3.org/1999/xlink" viewBox="0 0 171 171"><g fill="none" fill-rule="nonzero" stroke="none" stroke-width="1" stroke-linecap="butt" stroke-linejoin="miter" stroke-miterlimit="10" stroke-dasharray="" stroke-dashoffset="0" font-family="none" font-weight="none" font-size="none" text-anchor="none" style="mix-blend-mode: normal"><path d="M0,171.99573v-171.99573h171.99573v171.99573z" fill="none"></path><g fill="#0883eb"><path d="M85.5,10.26c-41.50758,0 -75.24,33.73242 -75.24,75.24c0,41.50758 33.73242,75.24 75.24,75.24c41.50758,0 75.24,-33.73242 75.24,-75.24c0,-41.50758 -33.73242,-75.24 -75.24,-75.24zM85.5,17.1c17.68781,0 33.71906,6.74648 45.84938,17.74125l-9.61875,9.61875c-9.64547,-8.50992 -22.35023,-13.68 -36.23063,-13.68c-14.49492,0 -27.34664,5.53078 -37.08562,14.535c-1.22906,-0.52102 -2.55164,-0.855 -3.95437,-0.855c-5.6243,0 -10.26,4.6357 -10.26,10.26c0,2.45813 0.88172,4.74258 2.35125,6.51937c-3.82078,7.32094 -5.77125,15.51023 -5.77125,24.26063c0,26.98594 19.43789,49.17586 44.78063,53.65125c1.08211,4.48875 5.13,7.90875 9.93937,7.90875c4.8361,0 8.88398,-3.47344 9.93937,-8.01562c25.50305,-4.58227 44.78063,-26.66531 44.78063,-53.54437c0,-13.88039 -5.17008,-26.58515 -13.68,-36.23063l9.61875,-9.61875c10.99477,12.13031 17.74125,28.16156 17.74125,45.84938c0,37.82039 -30.57961,68.4 -68.4,68.4c-37.82039,0 -68.4,-30.57961 -68.4,-68.4c0,-37.82039 30.57961,-68.4 68.4,-68.4zM85.5,37.62c12.05016,0 22.92469,4.47539 31.31438,11.75625l-9.61875,9.72563c-0.02672,-0.01336 -0.08015,0.01336 -0.10687,0c-5.90484,-4.84945 -13.37273,-7.80188 -21.58875,-7.80188c-18.85008,0 -34.2,15.34992 -34.2,34.2c0,18.85008 15.34992,34.2 34.2,34.2c9.52523,0 18.15539,-3.94102 24.3675,-10.26c3.58031,-0.22711 6.4125,-3.20625 6.4125,-6.84c0,-0.62789 -0.05344,-1.24242 -0.21375,-1.81687c2.32453,-4.60898 3.63375,-9.77906 3.63375,-15.28312c0,-8.21602 -2.95242,-15.6839 -7.80188,-21.58875c-0.01336,-0.02672 0.01336,-0.08015 0,-0.10687l9.72563,-9.61875c7.28086,8.38969 11.75625,19.26422 11.75625,31.31438c0,23.43235 -16.6057,42.60305 -38.68875,46.81125c-1.68328,-3.40664 -5.17008,-5.77125 -9.19125,-5.77125c-4.04789,0 -7.53469,2.43141 -9.19125,5.87813c-21.92273,-4.07461 -38.68875,-23.36555 -38.68875,-46.91812c0,-7.6282 1.65656,-14.535 4.80938,-20.73375c0.66797,0.1336 1.32258,0.21375 2.03063,0.21375c5.6243,0 10.26,-4.6357 10.26,-10.26c0,-1.73672 -0.50765,-3.36656 -1.2825,-4.80938c8.49656,-7.68164 19.50469,-12.29062 32.0625,-12.29062zM44.46,51.3c1.92375,0 3.42,1.49625 3.42,3.42c0,1.92375 -1.49625,3.42 -3.42,3.42c-1.92375,0 -3.42,-1.49625 -3.42,-3.42c0,-1.92375 1.49625,-3.42 3.42,-3.42zM85.5,58.14c6.3457,0 12.14367,2.16422 16.77938,5.77125l-12.3975,12.3975c-1.33594,-0.64125 -2.80547,-1.06875 -4.38187,-1.06875c-5.6243,0 -10.26,4.6357 -10.26,10.26c0,5.6243 4.6357,10.26 10.26,10.26c5.6243,0 10.26,-4.6357 10.26,-10.26c0,-1.5764 -0.4275,-3.04594 -1.06875,-4.38188l12.3975,-12.3975c3.60703,4.6357 5.77125,10.43367 5.77125,16.77938c0,3.67383 -0.73477,7.17398 -2.03063,10.36687c-0.44086,-0.09352 -0.9218,-0.10688 -1.38938,-0.10688c-3.7807,0 -6.84,3.0593 -6.84,6.84c0,1.24242 0.37406,2.41805 0.96188,3.42c-4.82273,4.24828 -11.115,6.84 -18.06187,6.84c-15.14953,0 -27.36,-12.21047 -27.36,-27.36c0,-15.14953 12.21047,-27.36 27.36,-27.36zM85.5,82.08c1.92375,0 3.42,1.49625 3.42,3.42c0,1.92375 -1.49625,3.42 -3.42,3.42c-1.92375,0 -3.42,-1.49625 -3.42,-3.42c0,-1.92375 1.49625,-3.42 3.42,-3.42zM85.5,133.38c1.92375,0 3.42,1.49625 3.42,3.42c0,1.92375 -1.49625,3.42 -3.42,3.42c-1.92375,0 -3.42,-1.49625 -3.42,-3.42c0,-1.92375 1.49625,-3.42 3.42,-3.42z"></path></g></g></svg>